# xmcd
#
# Track frame offsets: 
#        150
#        11754
#        18761
#        27506
#        34420
#        40363
#        48727
#        53102
#        61069
#        69639
#        79814
#        89911
#        96915
#        106426
#        115909
#        126116
#        131941
#        142125
#        147835
#        154193
#        161360
#        166794
#        170574
#        182070
#        190449
#
# Disc length: 2658 seconds
#
# Revision: 0
# Processed by: cddbd v1.5.2PL0 Copyright (c) Steve Scherf et al.
# Submitted via: ExactAudioCopyFreeDBPlugin 1.0
#
DISCID=700a6019
DTITLE=あそびうた伝 - あそびうた伝 春夏秋冬虎の巻 Disc 1
DYEAR=2016
DGENRE=Folk
TTITLE0=さあ みんなで
TTITLE1=はじまるよ はじまるよ
TTITLE2=ともタッチ
TTITLE3=はるをみーつけた
TTITLE4=春ですよ！春ですよ！
TTITLE5=ずくぼんじょ (つくしんぼ)
TTITLE6=たけのこ一本おくれ
TTITLE7=ちいさなにわ
TTITLE8=ワニのかぞく
TTITLE9=パンダうさぎコアラ
TTITLE10=たかいたかいをして
TTITLE11=うさぎさんよくみてね
TTITLE12=おべんとバス
TTITLE13=バスにのって
TTITLE14=はみがきの歌
TTITLE15=みんなのねがいごと
TTITLE16=すいかの名産地
TTITLE17=すいかばたけに
TTITLE18=ぷるぷるプールたいそう
TTITLE19=カブトムシがけんかした
TTITLE20=カレーライスのうた
TTITLE21=おばけだぞ
TTITLE22=みかんの花咲く丘
TTITLE23=茶つみ
TTITLE24=アルプス一万尺
EXTD=
EXTT0=
EXTT1=
EXTT2=
EXTT3=
EXTT4=
EXTT5=
EXTT6=
EXTT7=
EXTT8=
EXTT9=
EXTT10=
EXTT11=
EXTT12=
EXTT13=
EXTT14=
EXTT15=
EXTT16=
EXTT17=
EXTT18=
EXTT19=
EXTT20=
EXTT21=
EXTT22=
EXTT23=
EXTT24=
PLAYORDER=
